<svg width="99" height="21" viewBox="0 0 99 21" fill="none" xmlns="http://www.w3.org/2000/svg">
<path d="M81.6704 7.49894C80.308 7.1275 78.9323 7.1275 77.5766 7.49894C75.5432 8.05611 74.1808 9.36991 73.7446 11.4679C73.503 12.6097 73.456 13.8272 73.5231 15.0034C73.6641 17.6861 75.2881 19.5983 77.7981 20.1967H77.9055C77.9994 20.1967 78.1001 20.2655 78.1941 20.2655H78.2947C78.4155 20.2655 78.5632 20.3343 78.7175 20.3343C79.2074 20.4031 79.8383 20.4237 80.3617 20.3343H80.4423C83.0395 20.1967 85.0058 18.5184 85.583 15.9458C85.8984 14.5357 85.8984 13.1187 85.583 11.7017C85.0998 9.47996 83.7844 8.05611 81.6301 7.46455L81.6704 7.49894ZM81.8382 15.2579C81.8382 15.3405 81.8382 15.423 81.7711 15.5056C81.5093 16.6887 80.6705 17.3284 79.5497 17.2802C78.3484 17.2115 77.5229 16.503 77.4021 15.2717C77.3216 14.3706 77.3082 13.4558 77.4021 12.5547C77.5162 11.1308 78.382 10.3535 79.6839 10.3811C80.751 10.3811 81.5161 11.0208 81.7845 12.0801C82.0395 13.1325 81.8583 15.0172 81.8516 15.2579H81.8382ZM87.0594 1.21883V20.1486H90.9787V14.3569L94.5893 20.1555H98.7434L94.8241 13.8547L98.7434 7.58149H94.5893L90.9787 13.3663V0.73045L87.0594 1.21883ZM45.3365 14.2674C45.3365 13.387 45.3365 12.5065 45.209 11.6398C44.8735 9.27361 43.4708 7.77408 41.1958 7.38201C40.33 7.23068 39.4106 7.25132 38.5248 7.31322C36.1088 7.54709 34.2766 9.08789 33.9008 11.4128C33.6726 12.8229 33.6458 14.3156 33.827 15.7257C34.1022 17.8512 35.1155 19.2062 36.8604 19.8597C37.659 20.1073 41.5649 21.1529 45.001 19.3782L44.86 18.8623C44.699 18.1676 44.5111 17.4866 44.3299 16.7987V16.73C44.3299 16.73 44.256 16.73 44.1285 16.7987C43.9809 16.8675 43.8265 16.8882 43.6789 16.9363H43.5984C43.0749 17.0876 42.33 17.2734 41.5448 17.3765C40.8871 17.4453 40.216 17.4453 39.5448 17.3765C38.4509 17.1908 37.6188 16.5924 37.659 15.1754H45.3432V15.0378L45.3365 14.2674ZM41.8132 12.5409L50.9537 11.4404C50.9537 10.5805 37.706 10.8763 38.4509 10.3879C39.2428 9.87204 40.122 9.85141 40.9408 10.3123C41.7729 10.78 41.8333 11.6261 41.8132 12.5409ZM33.2767 19.2337C33.1089 18.6009 32.9143 17.9681 32.7264 17.3628L32.5519 16.6887C32.5519 16.6887 27.9682 18.9448 27.2568 14.6595C27.1897 13.951 27.1897 13.2219 27.3239 12.5272C27.5051 11.2134 28.2836 10.5049 29.5319 10.3879C29.9547 10.3191 30.3909 10.3879 30.807 10.4567C31.3774 10.553 31.9278 10.7319 32.5519 10.8901C32.7666 10.216 32.9881 9.54187 33.1961 8.86777C33.2633 8.7646 33.2633 8.6683 33.2767 8.59263L33.3774 8.1868C33.3774 8.11801 33.2901 8.07674 33.2029 8.02171C33.0955 7.93229 32.921 7.85663 32.6391 7.75345C32.525 7.68466 32.4177 7.67091 32.3036 7.63651C32.2029 7.56773 32.1358 7.56773 32.1358 7.56773C30.9345 7.21692 29.6997 7.18941 28.4447 7.3201C25.8005 7.609 24.002 9.20482 23.5053 11.8462C23.2436 13.2357 23.257 14.6458 23.5724 16.0352C24.0221 18.1194 25.2569 19.4745 27.2635 20.0729C28.5722 20.465 29.9144 20.4856 31.2499 20.2724C31.8137 20.183 32.619 19.8872 33.1961 19.674L33.4176 19.5914L33.3102 19.2337H33.2767ZM18.4586 9.05349C18.3915 8.98471 18.3646 8.95032 18.3311 8.90905L18.2371 8.81275C17.358 7.89102 17.0224 7.66403 16.3312 7.45767C13.6736 6.65288 11.0831 8.08362 10.2643 10.8213C9.761 12.5065 9.75429 14.2399 10.0496 15.9458C10.6871 19.6396 13.3649 20.8777 16.2238 20.2655C17.1029 20.0798 17.7539 19.5158 18.3579 18.7385C18.3579 18.7385 18.425 18.6697 18.4787 18.539V20.1624H22.1363V7.44391H18.4787V9.05349H18.4586ZM18.1365 15.4437C18.0157 16.6199 17.0895 17.3215 15.9889 17.2802C14.8681 17.2115 14.1232 16.6199 13.8816 15.5125C13.593 13.9441 13.9487 12.0732 13.9622 11.9219C14.2574 10.8694 15.0024 10.3467 16.103 10.3742C17.1835 10.3742 18.0089 11.0552 18.1365 12.197C18.2438 13.27 18.2438 14.3775 18.1365 15.4437ZM9.51941 7.43704H6.72088V5.53168C6.92221 3.7295 9.82812 4.07343 9.82812 4.07343V0.991836C9.72745 0.991836 4.05657 -0.411389 2.92911 4.01152C2.75462 4.5618 2.76133 7.09999 2.76804 7.4164H0.345337V10.8075H2.91569V20.0248H6.66048V10.8075H9.52612L9.84825 7.4164H9.52612L9.51941 7.43704ZM68.3153 7.49894C66.953 7.1275 65.5772 7.1275 64.2216 7.49894C62.1881 8.05611 60.8257 9.36991 60.3828 11.4679C60.1412 12.6097 60.0942 13.8272 60.1613 15.0034C60.309 17.6861 61.9264 19.5983 64.443 20.1967H64.5504C64.6443 20.1967 64.745 20.2655 64.839 20.2655H64.9396C65.0604 20.2655 65.2081 20.3343 65.3624 20.3343C65.8523 20.4031 66.4832 20.4237 67.0067 20.3343H67.0872C69.6844 20.1967 71.6507 18.5184 72.2279 15.9458C72.5433 14.5357 72.5433 13.1187 72.2279 11.7017C71.738 9.48684 70.4293 8.05611 68.2751 7.46455L68.3153 7.49894ZM68.4764 15.2579C68.4764 15.3405 68.4764 15.423 68.4093 15.5056C68.1475 16.6887 67.3087 17.3284 66.1879 17.2802C64.9866 17.2115 64.1611 16.503 64.0403 15.2717C63.9565 14.3681 63.9565 13.4583 64.0403 12.5547C64.1544 11.1308 65.0202 10.3535 66.3221 10.3811C67.3892 10.3811 68.1543 11.0208 68.4227 12.0801C68.6844 13.1325 68.5032 15.0172 68.4898 15.2579H68.4764ZM54.4301 7.26507C52.9536 7.09999 51.6718 7.56085 50.5913 8.89529V0.716694L46.672 1.20507V20.128H50.5913V19.0068C51.1215 19.392 51.6315 19.8597 52.2355 20.0798C54.5173 20.919 57.5239 20.238 58.5775 17.1083C59.2553 15.0997 59.2352 13.0431 58.7252 11.0139C58.1681 8.75772 56.6984 7.5127 54.4301 7.26507ZM55.0206 15.4643C54.8462 16.7093 53.8797 17.3628 52.7322 17.2734C52.4436 17.2734 52.1818 17.1908 51.9537 17.0945C51.0275 16.5511 50.7457 15.6363 50.6651 15.0585C50.598 14.1711 50.5309 12.3139 50.9537 11.4404C51.3094 10.7663 51.9402 10.4017 52.7657 10.3742C53.9469 10.3054 54.8394 10.9313 55.0139 12.1626C55.1616 13.2425 55.1683 14.3844 55.0139 15.4643H55.0206Z" fill="white"/>
</svg>
