<svg width="125" height="34" viewBox="0 0 125 34" fill="none" xmlns="http://www.w3.org/2000/svg">
<path d="M6.43363 0.118167C3.8751 1.14578 1.0624 4.04526 0.174071 7.68752C-0.950966 12.3009 3.73076 14.2518 4.11475 13.6132C4.5667 12.8613 3.27587 12.6071 3.01012 10.2134C2.66674 7.12166 4.16588 3.66702 6.05279 2.15121C6.40354 1.8696 6.38671 2.26156 6.38671 2.98658C6.38671 4.28331 6.31201 15.922 6.31201 18.3512C6.31201 21.638 6.17041 22.6759 5.91603 23.7013C5.65828 24.7406 5.24421 25.4429 5.55792 25.7136C5.90867 26.0162 7.40591 25.2964 8.27278 24.1365C9.31218 22.7453 9.67597 21.0746 9.74141 19.2602C9.82031 17.073 9.81694 13.6025 9.82031 11.6229C9.82347 9.80731 9.85208 4.49089 9.78707 1.29486C9.77129 0.510937 7.50375 -0.31152 6.43363 0.118167ZM124.439 17.3851C124.068 17.3851 123.898 17.7519 123.758 18.3694C123.272 20.5164 122.761 21.001 122.103 21.001C121.367 21.001 120.705 19.9378 120.535 17.81C120.402 16.1368 120.423 13.0562 120.594 9.99209C120.629 9.36249 120.448 8.73954 118.687 8.12608C117.929 7.86201 116.827 7.47368 116.278 8.74317C114.729 12.3297 114.122 15.1774 113.98 16.3337C113.972 16.3936 113.896 16.4057 113.882 16.2659C113.791 15.3396 113.588 13.6559 113.563 10.119C113.558 9.42886 113.405 8.84142 112.611 8.36049C112.095 8.04821 110.53 7.49648 109.966 8.15311C109.478 8.69012 108.912 10.1353 108.325 11.8484C107.847 13.2406 107.514 14.1824 107.514 14.1824C107.514 14.1824 107.521 10.4256 107.526 9.00058C107.529 8.46297 107.144 8.28363 107.028 8.25135C106.507 8.10611 105.478 7.86343 105.042 7.86343C104.503 7.86343 104.371 8.1521 104.371 8.57271C104.371 8.62778 104.286 13.519 104.286 16.9391C104.286 17.0876 104.286 17.2498 104.287 17.422C103.989 18.9939 103.022 21.1278 101.972 21.1278C100.92 21.1278 100.424 20.2358 100.424 16.1584C100.424 13.78 100.498 12.7455 100.534 11.0254C100.556 10.0345 100.597 9.27332 100.594 9.10084C100.587 8.5713 99.6316 8.30441 99.1872 8.20556C98.7407 8.10631 98.3527 8.06758 98.0498 8.08412C97.621 8.10732 97.3178 8.37703 97.3178 8.74802C97.3178 8.94692 97.3201 9.32497 97.3201 9.32497C96.7678 8.49283 95.8792 7.91366 95.2884 7.74582C93.6965 7.29273 92.0353 7.69438 90.7824 9.3752C89.7865 10.7109 89.1862 12.2238 88.9499 14.3973C88.7772 15.9861 88.8336 17.5975 89.1406 18.9602C88.7696 20.4978 88.081 21.1278 87.3269 21.1278C86.2321 21.1278 85.4385 19.4147 85.5306 16.4517C85.5915 14.5028 85.9982 13.1353 86.4427 11.1567C86.6323 10.313 86.4783 9.87166 86.092 9.44843C85.7377 9.06009 84.983 8.86199 83.8975 9.10589C83.1245 9.27958 82.019 9.46678 81.008 9.61042C81.008 9.61042 81.069 9.37701 81.1191 8.96548C81.3821 6.80736 78.9361 6.98247 78.1557 7.67178C77.6899 8.08331 77.3728 8.56868 77.2525 9.44137C77.0616 10.826 78.2395 11.4795 78.2395 11.4795C77.853 13.176 76.9055 15.3918 75.9275 16.994C75.4036 17.8523 75.0026 18.4884 74.4854 19.1646C74.4835 18.9132 74.4821 18.6619 74.4812 18.4105C74.4692 14.8441 74.5189 12.0372 74.5405 11.0256C74.562 10.0347 74.6035 9.2939 74.6009 9.12142C74.5953 8.7341 74.3594 8.58764 73.8687 8.40265C73.4349 8.23885 72.9219 8.12547 72.3898 8.08594C71.7184 8.03591 71.3136 8.37723 71.3243 8.7811C71.3264 8.85735 71.3264 9.32557 71.3264 9.32557C70.7741 8.49343 69.8855 7.91426 69.2947 7.74642C67.7028 7.29333 66.0416 7.69498 64.7887 9.3758C63.793 10.7115 63.141 12.5857 62.9563 14.3812C62.7842 16.0545 62.8159 17.4765 63.0505 18.6744C62.7974 19.8739 62.0696 21.1282 61.2467 21.1282C60.1947 21.1282 59.5961 20.2362 59.5961 16.1588C59.5961 13.7804 59.6706 12.7461 59.707 11.0258C59.7284 10.0349 59.7695 9.27373 59.7669 9.10125C59.7592 8.5717 58.8041 8.30481 58.3598 8.20597C57.8948 8.10268 57.4933 8.06496 57.1851 8.08674C56.7781 8.11579 56.4924 8.46479 56.4924 8.72522V9.32557C55.9401 8.49343 55.0515 7.91426 54.4607 7.74642C52.8688 7.29333 51.2169 7.70144 49.9547 9.3758C49.1316 10.4676 48.4652 11.678 48.1223 14.3573C48.0232 15.1316 47.9794 15.8568 47.9851 16.5344C47.6569 18.4589 46.2074 20.677 45.0213 20.677C44.3274 20.677 43.6665 19.3867 43.6665 16.6365C43.6665 12.9731 43.9032 7.75732 43.943 7.2546C43.943 7.2546 45.4413 7.23019 45.7314 7.22697C46.479 7.2191 47.1559 7.23604 48.1511 7.18722C48.6504 7.16281 49.1314 5.44487 48.6161 5.23225C48.3828 5.13602 46.7319 5.0517 46.0778 5.03839C45.5276 5.02648 43.9956 4.91775 43.9956 4.91775C43.9956 4.91775 44.133 1.45564 44.1652 1.08991C44.1923 0.784888 43.781 0.628143 43.5451 0.532724C42.9713 0.30033 42.4584 0.188773 41.8501 0.0685414C41.0097 -0.0976849 40.6283 0.0649103 40.554 0.745147C40.4418 1.777 40.3838 4.80014 40.3838 4.80014C39.7669 4.80014 37.6605 4.68455 37.0436 4.68455C36.4702 4.68455 35.8519 7.04783 36.6442 7.07688C37.5559 7.11077 39.1447 7.14002 40.198 7.17048C40.198 7.17048 40.1511 12.4724 40.1511 14.1092C40.1511 14.2833 40.1517 14.451 40.153 14.6137C39.5733 17.5106 37.5313 19.0754 37.5313 19.0754C37.9698 17.159 37.0741 15.7198 35.4609 14.5016C34.8663 14.0525 33.6931 13.2028 32.3802 12.2714C32.3802 12.2714 33.1406 11.5529 33.8149 10.1071C34.2928 9.08309 34.3134 7.91124 33.1404 7.65282C31.2027 7.22575 29.6047 8.59006 29.1281 10.0468C28.7589 11.1754 28.9558 12.0126 29.6792 12.8827C29.732 12.9462 29.7892 13.011 29.8484 13.0764C29.4109 13.8847 28.81 14.973 28.301 15.8171C26.8882 18.1604 25.8212 20.0139 25.0145 20.0139C24.3698 20.0139 24.3787 18.1321 24.3787 16.3702C24.3787 14.8514 24.4957 12.5678 24.5891 10.2035C24.62 9.4216 24.212 8.97617 23.5284 8.57271C23.1131 8.32761 22.2266 7.84567 21.7135 7.84567C20.9451 7.84567 18.728 7.94593 16.6332 13.7556C16.3692 14.4879 15.8505 15.8221 15.8505 15.8221L15.8951 8.83577C15.8951 8.67196 15.804 8.5134 15.5957 8.40507C15.2427 8.2215 14.2998 7.84567 13.4616 7.84567C13.0622 7.84567 12.8628 8.0238 12.8628 8.37885L12.7895 19.3092C12.7895 20.1398 12.8121 21.1087 12.8979 21.5323C12.9831 21.9568 13.1214 22.3017 13.2926 22.5071C13.4635 22.712 13.6613 22.8684 13.9874 22.9329C14.2908 22.9928 15.9524 23.1974 16.0388 22.5886C16.1424 21.8589 16.1461 21.0697 17.0187 18.1265C18.3771 13.5442 20.1481 11.3084 20.9808 10.5144C21.1262 10.3756 21.2924 10.3673 21.2845 10.5945C21.2491 11.5989 21.1241 14.1094 21.0398 16.2421C20.8142 21.9495 21.8972 23.0074 23.4447 23.0074C24.6286 23.0074 26.2976 21.8793 28.0866 19.0244C29.2018 17.2451 30.2847 15.5006 31.063 14.2432C31.6052 14.7245 32.2135 15.2423 32.8218 15.7957C34.2349 17.0815 34.6988 18.3034 34.391 19.4626C34.1556 20.3488 33.2689 21.262 31.6909 20.3744C31.2309 20.1156 31.0344 19.9154 30.5722 19.6233C30.3237 19.4666 29.9445 19.4196 29.7171 19.584C29.126 20.0111 28.7881 20.5545 28.5952 21.2271C28.4075 21.8815 29.0911 22.2275 29.7998 22.5301C30.4099 22.7905 31.7214 23.0265 32.5578 23.0534C35.8163 23.1579 38.427 21.5448 40.2441 17.3839C40.5696 20.9774 41.9538 23.0108 44.3594 23.0108C45.9675 23.0108 47.5798 21.0179 48.2849 19.0573C48.4873 19.8565 48.7869 20.5513 49.1739 21.1391C51.0273 23.9547 54.623 23.3487 56.4291 20.958C56.9873 20.2192 57.0725 19.9536 57.0725 19.9536C57.3359 22.2111 59.2321 23.0001 60.3178 23.0001C61.5337 23.0001 62.7892 22.449 63.6691 20.5497C63.77 20.7523 63.883 20.9492 64.0077 21.1393C65.8611 23.9549 69.4567 23.3489 71.2629 20.9582C71.3479 20.8458 71.4219 20.7441 71.4863 20.6528L71.5393 22.1359L69.8767 23.598C67.0895 26.0473 64.9719 27.905 64.8162 30.0684C64.6183 32.8268 66.9502 33.852 68.7169 33.9864C70.59 34.129 72.1968 33.1361 73.1832 31.7464C74.0511 30.5235 74.619 27.8911 74.5776 25.291C74.561 24.2498 74.5336 22.9261 74.5119 21.5071C75.4903 20.4177 76.5928 19.0407 77.6076 17.4293C78.7139 15.6728 79.8994 13.3144 80.5062 11.4788C80.5062 11.4788 81.5361 11.4873 82.6353 11.4183C82.9868 11.3963 83.0876 11.4649 83.0228 11.7123C82.9443 12.0106 81.6341 16.856 82.8299 20.0837C83.6484 22.2932 85.4934 23.0041 86.5873 23.0041C87.8678 23.0041 89.0926 22.077 89.7491 20.7002C89.8282 20.8537 89.9111 21.0022 90.0011 21.1393C91.8546 23.9549 95.4376 23.3455 97.2563 20.9582C97.6666 20.4196 97.8997 19.9538 97.8997 19.9538C98.29 22.2902 100.185 23.012 101.271 23.012C102.401 23.012 103.474 22.5676 104.345 20.5924C104.381 21.4623 104.439 22.1732 104.529 22.3973C104.584 22.5345 104.905 22.7066 105.139 22.7897C106.174 23.1573 107.228 22.9836 107.619 22.9079C107.889 22.8555 108.1 22.6475 108.129 22.1105C108.204 20.7004 108.158 18.3312 108.604 16.5703C109.352 13.6154 110.05 12.4689 110.382 11.9017C110.567 11.5837 110.776 11.5313 110.784 11.8678C110.799 12.5486 110.834 14.548 111.125 17.2342C111.337 19.2098 111.622 20.3776 111.84 20.7472C112.464 21.8038 113.235 21.8539 113.862 21.8539C114.261 21.8539 115.096 21.7484 115.021 21.0758C114.985 20.748 115.049 18.722 115.787 15.8108C116.268 13.9097 117.072 12.1922 117.361 11.564C117.468 11.3324 117.518 11.515 117.516 11.5505C117.455 12.8597 117.318 17.142 117.875 19.4841C118.629 22.6572 120.81 23.012 121.57 23.012C123.193 23.012 124.52 21.8285 124.967 18.7141C125.076 17.9639 124.917 17.3851 124.439 17.3851ZM56.4592 15.4598C56.3662 17.1079 56.0308 18.4858 55.4926 19.4866C54.5188 21.2979 52.5921 21.8722 51.7427 19.255C51.1302 17.3678 51.3387 14.7943 51.5935 13.4044C51.9716 11.3413 52.9185 9.87872 54.3966 10.0173C55.9148 10.1597 56.6529 12.0304 56.4592 15.4598ZM71.2929 15.4836C71.2063 17.04 70.7854 18.6034 70.3263 19.4868C69.3787 21.3106 67.3975 21.8807 66.5765 19.2552C66.0151 17.4612 66.1496 15.1395 66.4273 13.6767C66.7877 11.7784 67.6613 10.0175 69.2303 10.0175C70.7558 10.0173 71.508 11.6219 71.2929 15.4836ZM71.6801 26.1017C71.6595 28.9409 71.1936 31.4302 70.1942 32.1532C68.7767 33.1784 66.8715 32.4094 67.266 30.3377C67.6151 28.5043 69.2659 26.6321 71.6843 24.3444C71.6841 24.3444 71.6891 24.8661 71.6801 26.1017ZM97.2868 15.5002C97.2043 17.2088 96.8098 18.5445 96.3202 19.4866C95.3723 21.3104 93.4053 21.8767 92.5704 19.255C92.1153 17.8259 92.094 15.439 92.4212 13.4447C92.7543 11.4133 93.6843 9.87872 95.2242 10.0173C96.7431 10.1539 97.4541 12.0304 97.2868 15.5002Z" fill="white"/>
</svg>
