<svg width="125" height="22" viewBox="0 0 125 22" fill="none" xmlns="http://www.w3.org/2000/svg">
<path d="M113.51 4.06392H110.292V20.4492H107.13V4.06392H103.917V1.55077H113.51V4.06392ZM114.214 1.55077H117.594L118.646 10.0426C118.943 12.476 119.219 14.5703 119.542 17.4424H119.677C119.974 14.5703 120.271 12.5258 120.563 10.0426L121.646 1.55077H125L121.755 20.4193H117.484L114.214 1.55077ZM32.1406 3.4456C31.9544 2.77899 31.5898 2.17039 31.0829 1.67983C30.576 1.18927 29.9442 0.833715 29.25 0.648233C26.6823 5.94425e-07 16.4115 0 16.4115 0C16.4115 0 6.13542 5.94425e-07 3.56771 0.648233C2.87194 0.829172 2.23833 1.18261 1.73082 1.67288C1.2233 2.16315 0.859829 2.7729 0.677083 3.44062C0 5.89891 0 11 0 11C0 11 0 16.126 0.677083 18.5594C0.865463 19.2285 1.23399 19.8386 1.74582 20.3286C2.25765 20.8186 2.89486 21.1714 3.59375 21.3518C6.13542 22 16.4063 22 16.4063 22C16.4063 22 26.6823 22 29.25 21.3518C29.943 21.1682 30.5752 20.8174 31.0859 20.3328C31.5966 19.8482 31.9688 19.2461 32.1667 18.5843C32.8438 16.126 32.8438 11.0249 32.8438 11.0249C32.8438 11.0249 32.8177 5.89891 32.1406 3.4456ZM13.1354 15.7121V6.28785L21.6771 11L13.1354 15.7121ZM47.6615 20.0354C46.9587 19.5686 46.4658 18.8652 46.2812 18.0657C45.9847 16.9145 45.8481 15.7308 45.875 14.5453V12.5508C45.8461 11.344 46.0094 10.1401 46.3594 8.98051C46.5961 8.18502 47.1109 7.49147 47.8177 7.01587C48.6145 6.577 49.524 6.36105 50.4427 6.39257C51.5 6.39257 52.3646 6.602 53.0104 7.01587C53.6875 7.50453 54.2031 8.1777 54.4167 8.98051C54.7396 10.1473 54.9063 11.3341 54.849 12.5508V14.5453C54.875 15.7371 54.7448 16.9288 54.4167 18.0907C54.2041 18.885 53.7063 19.5823 53.0104 20.0603C52.3646 20.4742 51.4688 20.6786 50.3646 20.6786C49.2292 20.6537 48.3073 20.4492 47.6562 20.0304L47.6615 20.0354ZM51.3073 17.8613C51.5 17.4175 51.5781 16.6646 51.5781 15.6573V11.3889C51.61 10.655 51.5185 9.92101 51.3073 9.21487C51.2515 9.01584 51.1291 8.8398 50.9588 8.71371C50.7886 8.58763 50.5798 8.51845 50.3646 8.51677C50.1515 8.51775 49.945 8.58704 49.7779 8.71358C49.6108 8.84012 49.4928 9.01661 49.4427 9.21487C49.2292 9.91297 49.1458 10.6609 49.1719 11.3889V15.6822C49.1719 16.6945 49.2552 17.4424 49.4427 17.8862C49.5469 18.3001 49.9323 18.5843 50.3906 18.5594C50.6028 18.5573 50.8081 18.4875 50.9742 18.3611C51.1402 18.2346 51.2575 18.0587 51.3073 17.8613ZM97.5573 14.5703V15.2684C97.5573 15.9415 97.5885 16.5898 97.6406 17.2629C97.6636 17.6073 97.7863 17.9388 97.9948 18.2203C98.0987 18.3251 98.2252 18.4071 98.3655 18.4605C98.5058 18.5138 98.6566 18.5374 98.8073 18.5295C99.0113 18.5428 99.2149 18.4984 99.3927 18.4018C99.5705 18.3051 99.7147 18.1605 99.8073 17.9859C99.9948 17.6269 100.078 17.0286 100.104 16.1759L102.885 16.3554C102.911 16.5204 102.922 16.6873 102.917 16.854C102.917 18.1156 102.563 19.073 101.833 19.6963C101.104 20.3196 100.078 20.6287 98.75 20.6287C97.1562 20.6287 96.0469 20.1351 95.401 19.1827C94.7552 18.2303 94.4271 16.7443 94.4271 14.7248V12.3214C94.4271 10.2471 94.75 8.74615 95.4271 7.78876C96.1042 6.83137 97.2396 6.36764 98.8333 6.36764C99.9427 6.36764 100.807 6.57208 101.401 6.966C102.026 7.40481 102.479 8.04805 102.672 8.77607C102.943 9.88803 103.078 11.0499 103.021 12.1918V14.5453L97.5573 14.5703ZM97.9688 8.77607C97.768 9.05951 97.6543 9.39122 97.6406 9.73346C97.5886 10.4055 97.5625 11.0791 97.5625 11.7529V12.7353H99.9427V11.7529C99.9427 11.0798 99.9115 10.4066 99.8333 9.73346C99.8103 9.38905 99.6877 9.05756 99.4792 8.77607C99.385 8.67576 99.2677 8.59784 99.1367 8.54851C99.0056 8.49917 98.8643 8.47977 98.724 8.49184C98.5835 8.47773 98.4415 8.4962 98.3101 8.54567C98.1787 8.59514 98.0616 8.67416 97.9688 8.77607ZM39.7656 14.311L36.0885 1.55077H39.3073L40.6042 7.32502C40.9271 8.74615 41.1719 9.96781 41.3333 10.9751H41.4375C41.5521 10.2471 41.7917 9.06029 42.1667 7.34995L43.5208 1.55077H46.7396L43.0104 14.316V20.4492H39.7917V14.316H39.7656V14.311ZM65.3125 6.65186V20.4492H62.7708L62.5 18.7638H62.4167C61.7396 20.0354 60.6875 20.6786 59.3125 20.6786C58.3646 20.6786 57.6615 20.3694 57.2031 19.7761C56.7396 19.1777 56.526 18.2452 56.526 16.9538V6.65186H59.7708V16.7743C59.7474 17.2224 59.8201 17.6704 59.9844 18.0907C60.0464 18.2162 60.1469 18.3207 60.2725 18.3902C60.3981 18.4597 60.5429 18.4909 60.6875 18.4796C60.9793 18.473 61.2624 18.3826 61.5 18.2203C61.7496 18.0733 61.9474 17.8579 62.0677 17.602V6.65186H65.3125ZM81.9375 6.65186V20.4492H79.3958L79.125 18.7638H79.0417C78.3646 20.0354 77.3125 20.6786 75.9375 20.6786C74.9896 20.6786 74.2865 20.3694 73.8281 19.7761C73.3646 19.1777 73.151 18.2452 73.151 16.9538V6.65186H76.3958V16.7743C76.3724 17.2224 76.4451 17.6704 76.6094 18.0907C76.6714 18.2162 76.7719 18.3207 76.8975 18.3902C77.0231 18.4597 77.1679 18.4909 77.3125 18.4796C77.6043 18.473 77.8874 18.3826 78.125 18.2203C78.3746 18.0733 78.5724 17.8579 78.6927 17.602V6.65186H81.9375ZM74.125 4.05893H70.9063V20.4492H67.7448V4.06392H64.526V1.55077H74.125V4.06392V4.05893ZM92.6667 8.85086C92.4792 7.99819 92.1563 7.35494 91.724 6.96101C91.2192 6.55163 90.5725 6.33815 89.9115 6.36265C89.3122 6.35997 88.7266 6.53407 88.2344 6.86129C87.7252 7.1718 87.3146 7.6098 87.0469 8.12783H87.0208V0.852677H83.9115V20.4492H86.5885L86.9115 19.1528H86.9896C87.2433 19.6239 87.6388 20.0112 88.125 20.2647C88.6404 20.5315 89.2162 20.6736 89.8021 20.6786C90.3105 20.6901 90.8113 20.5595 91.2433 20.3026C91.6754 20.0458 92.0198 19.6739 92.2344 19.2325C92.75 18.2752 93.0156 16.7443 93.0156 14.6999V12.5258C92.997 11.2941 92.8804 10.0656 92.6667 8.85086ZM89.6979 14.4705C89.6979 15.2434 89.6667 16.0462 89.5625 16.8241C89.5285 17.259 89.3778 17.678 89.125 18.0408C89.0277 18.1554 88.9045 18.2473 88.7646 18.3095C88.6248 18.3717 88.4719 18.4026 88.3177 18.3998C88.0617 18.408 87.8087 18.3457 87.5885 18.2203C87.3626 18.0862 87.1762 17.8991 87.0469 17.6768V9.8631C87.1489 9.51058 87.3445 9.18935 87.6146 8.93064C87.7242 8.81562 87.8578 8.72382 88.0067 8.66113C88.1556 8.59844 88.3165 8.56626 88.4792 8.56664C88.776 8.56664 89.0729 8.69628 89.2344 8.93064C89.4531 9.31958 89.5885 9.72847 89.6146 10.1723C89.6927 11 89.7188 11.8277 89.7188 12.6555L89.6979 14.4705Z" fill="white"/>
</svg>
