<svg width="99" height="24" viewBox="0 0 99 24" fill="none" xmlns="http://www.w3.org/2000/svg">
<path d="M5.40979 0.721473C3.39576 1.41606 1.18164 3.37586 0.482363 5.83771C-0.403249 8.95597 3.28214 10.2746 3.58441 9.84295C3.94017 9.33476 2.92405 9.16296 2.71486 7.54499C2.44456 5.45524 3.62465 3.1202 5.11 2.09564C5.38611 1.90529 5.37286 2.17022 5.37286 2.66028C5.37286 3.53676 5.31406 11.4035 5.31406 13.0455C5.31406 15.2671 5.20259 15.9686 5.00235 16.6617C4.79945 17.3642 4.4735 17.8388 4.72045 18.0218C4.99655 18.2263 6.17516 17.7398 6.85754 16.9558C7.67574 16.0155 7.96211 14.8862 8.01363 13.6599C8.07574 12.1815 8.07309 9.83572 8.07574 8.49769C8.07822 7.27051 8.10075 3.67706 8.04957 1.51682C8.03714 0.986952 6.25217 0.431041 5.40979 0.721473ZM98.3017 12.3925C98.0095 12.3925 97.8763 12.6404 97.766 13.0577C97.3832 14.509 96.9813 14.8365 96.4627 14.8365C95.8833 14.8365 95.3626 14.1179 95.2289 12.6796C95.1238 11.5487 95.1406 9.46648 95.2751 7.39541C95.3026 6.96985 95.16 6.5488 93.7736 6.13415C93.177 5.95566 92.3097 5.69318 91.8779 6.55125C90.6581 8.97547 90.1806 10.9002 90.0683 11.6818C90.0625 11.7223 90.0024 11.7305 89.9916 11.636C89.9201 11.0099 89.7601 9.87186 89.7402 7.48118C89.7364 7.01471 89.6163 6.61765 88.9909 6.29259C88.5851 6.08151 87.3528 5.70859 86.9091 6.15242C86.5248 6.51539 86.0795 7.49222 85.6169 8.65013C85.2409 9.59111 84.979 10.2277 84.979 10.2277C84.979 10.2277 84.9839 7.68844 84.9885 6.72524C84.9905 6.36186 84.6877 6.24064 84.5964 6.21882C84.1857 6.12065 83.3759 5.95661 83.0324 5.95661C82.6083 5.95661 82.5044 6.15174 82.5044 6.43603C82.5044 6.47326 82.4375 9.77927 82.4375 12.091C82.4375 12.1914 82.4377 12.301 82.4382 12.4174C82.2036 13.4799 81.4431 14.9222 80.6159 14.9222C79.7878 14.9222 79.3972 14.3193 79.3972 11.5633C79.3972 9.95571 79.4559 9.2565 79.4845 8.09381C79.5014 7.42405 79.5337 6.90959 79.5317 6.793C79.5256 6.43508 78.7738 6.25468 78.424 6.18787C78.0725 6.12078 77.7671 6.0946 77.5286 6.10578C77.1911 6.12147 76.9524 6.30377 76.9524 6.55452C76.9524 6.68897 76.9542 6.94449 76.9542 6.94449C76.5194 6.38204 75.82 5.99057 75.3549 5.87712C74.1018 5.57087 72.7941 5.84235 71.8078 6.97844C71.0239 7.88124 70.5514 8.90389 70.3654 10.373C70.2294 11.4469 70.2738 12.5361 70.5154 13.4571C70.2234 14.4964 69.6813 14.9222 69.0877 14.9222C68.226 14.9222 67.6012 13.7643 67.6738 11.7616C67.7216 10.4443 68.0418 9.51993 68.3917 8.18258C68.541 7.61235 68.4197 7.31401 68.1156 7.02794C67.8367 6.76546 67.2426 6.63156 66.3882 6.79641C65.7796 6.91381 64.9094 7.04035 64.1136 7.13743C64.1136 7.13743 64.1616 6.97967 64.201 6.70151C64.4081 5.24281 62.4826 5.36116 61.8683 5.82708C61.5016 6.10524 61.252 6.4333 61.1573 7.02317C61.0071 7.9591 61.9343 8.40074 61.9343 8.40074C61.63 9.54747 60.8842 11.0452 60.1143 12.1281C59.7019 12.7083 59.3862 13.1382 58.9791 13.5953C58.9776 13.4254 58.9765 13.2555 58.9758 13.0856C58.9664 10.675 59.0055 8.77776 59.0225 8.09395C59.0394 7.42418 59.072 6.92349 59.0701 6.80691C59.0656 6.54511 58.8799 6.44612 58.4937 6.32109C58.1521 6.21037 57.7483 6.13374 57.3295 6.10701C56.801 6.0732 56.4823 6.30391 56.4907 6.57688C56.4924 6.62843 56.4924 6.9449 56.4924 6.9449C56.0576 6.38245 55.3582 5.99098 54.8931 5.87753C53.6399 5.57128 52.3323 5.84276 51.346 6.97885C50.5622 7.88165 50.049 9.1485 49.9035 10.362C49.7681 11.4931 49.7931 12.4542 49.9777 13.2639C49.7785 14.0747 49.2056 14.9225 48.5578 14.9225C47.7297 14.9225 47.2585 14.3196 47.2585 11.5636C47.2585 9.95599 47.3171 9.25691 47.3458 8.09409C47.3627 7.42432 47.3949 6.90986 47.393 6.79328C47.3868 6.43535 46.6351 6.25496 46.2852 6.18814C45.9192 6.11833 45.6032 6.09283 45.3605 6.10756C45.0402 6.12719 44.8153 6.36308 44.8153 6.53911V6.9449C44.3805 6.38245 43.6811 5.99098 43.216 5.87753C41.9629 5.57128 40.6625 5.84712 39.6689 6.97885C39.021 7.7168 38.4964 8.53491 38.2265 10.346C38.1484 10.8693 38.114 11.3595 38.1185 11.8175C37.8601 13.1183 36.7191 14.6175 35.7854 14.6175C35.2392 14.6175 34.719 13.7454 34.719 11.8865C34.719 9.4103 34.9053 5.88489 34.9366 5.5451C34.9366 5.5451 36.116 5.5286 36.3444 5.52642C36.9329 5.5211 37.4657 5.53256 38.2491 5.49956C38.6422 5.48306 39.0208 4.32188 38.6152 4.17816C38.4315 4.11312 37.132 4.05612 36.6171 4.04713C36.1839 4.03908 34.978 3.96559 34.978 3.96559C34.978 3.96559 35.0862 1.62549 35.1115 1.37829C35.1329 1.17212 34.8091 1.06617 34.6234 1.00168C34.1717 0.8446 33.7679 0.769196 33.2891 0.68793C32.6276 0.575575 32.3273 0.685475 32.2688 1.14526C32.1805 1.8427 32.1348 3.88609 32.1348 3.88609C31.6492 3.88609 29.9911 3.80796 29.5055 3.80796C29.0542 3.80796 28.5674 5.40534 29.1911 5.42497C29.9088 5.44788 31.1594 5.46765 31.9886 5.48824C31.9886 5.48824 31.9516 9.07187 31.9516 10.1782C31.9516 10.2959 31.9521 10.4092 31.9531 10.5193C31.4968 12.4773 29.8894 13.535 29.8894 13.535C30.2346 12.2396 29.5295 11.2669 28.2596 10.4434C27.7916 10.1399 26.868 9.56561 25.8345 8.93607C25.8345 8.93607 26.4331 8.45038 26.9639 7.47313C27.3401 6.78101 27.3563 5.98893 26.4329 5.81426C24.9077 5.5256 23.6497 6.44776 23.2746 7.43236C22.9839 8.19526 23.1389 8.76113 23.7084 9.34922C23.7499 9.39217 23.795 9.43594 23.8415 9.48011C23.4972 10.0265 23.0241 10.7621 22.6235 11.3326C21.5113 12.9165 20.6714 14.1693 20.0364 14.1693C19.5289 14.1693 19.5359 12.8974 19.5359 11.7065C19.5359 10.6799 19.6279 9.13637 19.7015 7.53831C19.7258 7.00981 19.4047 6.70874 18.8666 6.43603C18.5396 6.27036 17.8418 5.94462 17.4378 5.94462C16.833 5.94462 15.0878 6.01238 13.4388 9.93922C13.2309 10.4342 12.8226 11.336 12.8226 11.336L12.8577 6.61384C12.8577 6.50312 12.786 6.39594 12.6221 6.32272C12.3441 6.19864 11.602 5.94462 10.9421 5.94462C10.6277 5.94462 10.4707 6.06502 10.4707 6.305L10.4131 13.693C10.4131 14.2544 10.4308 14.9093 10.4984 15.1956C10.5655 15.4825 10.6743 15.7157 10.8091 15.8545C10.9436 15.993 11.0993 16.0987 11.356 16.1423C11.5948 16.1828 12.9028 16.3211 12.9709 15.9096C13.0524 15.4164 13.0553 14.883 13.7422 12.8936C14.8115 9.79632 16.2056 8.28512 16.8611 7.74843C16.9756 7.65462 17.1064 7.64903 17.1001 7.80256C17.0723 8.48147 16.9739 10.1784 16.9075 11.6199C16.73 15.4776 17.5824 16.1926 18.8006 16.1926C19.7326 16.1926 21.0464 15.4302 22.4547 13.5005C23.3325 12.2979 24.185 11.1187 24.7977 10.2688C25.2245 10.5941 25.7033 10.9441 26.1822 11.3182C27.2945 12.1873 27.6597 13.0132 27.4174 13.7966C27.2321 14.3956 26.5341 15.0129 25.2919 14.413C24.9299 14.238 24.7752 14.1028 24.4113 13.9053C24.2157 13.7994 23.9172 13.7676 23.7382 13.8787C23.2729 14.1674 23.0069 14.5347 22.855 14.9893C22.7073 15.4317 23.2454 15.6655 23.8033 15.87C24.2836 16.0461 25.3159 16.2056 25.9743 16.2237C28.5394 16.2944 30.5945 15.2041 32.0249 12.3917C32.2811 14.8205 33.3707 16.195 35.2644 16.195C36.5303 16.195 37.7995 14.8479 38.3545 13.5227C38.5138 14.0629 38.7497 14.5325 39.0543 14.9299C40.5133 16.833 43.3437 16.4234 44.7654 14.8074C45.2049 14.3081 45.2719 14.1285 45.2719 14.1285C45.4793 15.6545 46.9719 16.1877 47.8266 16.1877C48.7837 16.1877 49.772 15.8152 50.4647 14.5315C50.5441 14.6684 50.6331 14.8015 50.7312 14.93C52.1902 16.8331 55.0206 16.4235 56.4424 14.8076C56.5093 14.7316 56.5676 14.6629 56.6183 14.6011L56.66 15.6036L55.3512 16.5919C53.1571 18.2473 51.4903 19.503 51.3677 20.9653C51.2118 22.8298 53.0475 23.5227 54.4383 23.6135C55.9127 23.7099 57.1776 23.0388 57.9541 22.0995C58.6373 21.2729 59.0843 19.4936 59.0517 17.7362C59.0386 17.0324 59.0171 16.1377 59 15.1786C59.7702 14.4423 60.6381 13.5115 61.4369 12.4223C62.3077 11.2351 63.2409 9.64101 63.7186 8.40034C63.7186 8.40034 64.5293 8.40606 65.3946 8.35943C65.6713 8.34457 65.7507 8.39093 65.6996 8.5581C65.6379 8.75976 64.6065 12.0348 65.5478 14.2165C66.1921 15.71 67.6444 16.1905 68.5055 16.1905C69.5136 16.1905 70.4777 15.5638 70.9944 14.6332C71.0567 14.7369 71.122 14.8373 71.1928 14.93C72.6519 16.8331 75.4723 16.4212 76.904 14.8076C77.227 14.4435 77.4105 14.1287 77.4105 14.1287C77.7178 15.7079 79.2096 16.1958 80.064 16.1958C80.9541 16.1958 81.7988 15.8954 82.484 14.5604C82.5127 15.1483 82.5577 15.6288 82.629 15.7803C82.6723 15.873 82.9253 15.9893 83.1093 16.0455C83.9235 16.294 84.754 16.1766 85.0612 16.1254C85.274 16.09 85.44 15.9494 85.4627 15.5864C85.5221 14.6333 85.4857 13.032 85.8367 11.8418C86.4258 9.84445 86.9754 9.06956 87.2361 8.68613C87.382 8.47124 87.5466 8.43579 87.5526 8.66322C87.5647 9.12342 87.5925 10.4748 87.8209 12.2905C87.9885 13.6258 88.2123 14.4151 88.3844 14.6649C88.8754 15.3792 89.482 15.413 89.9759 15.413C90.2899 15.413 90.9471 15.3417 90.8883 14.8871C90.8597 14.6655 90.9098 13.2961 91.4907 11.3284C91.87 10.0434 92.5024 8.88248 92.7304 8.45788C92.8146 8.30134 92.8537 8.42474 92.8523 8.44874C92.8043 9.33367 92.6965 12.2282 93.1344 13.8112C93.728 15.9559 95.4451 16.1958 96.0435 16.1958C97.321 16.1958 98.3657 15.3958 98.7177 13.2908C98.8033 12.7837 98.6778 12.3925 98.3017 12.3925ZM44.7891 11.0911C44.7159 12.2051 44.4519 13.1364 44.0282 13.8129C43.2617 15.0372 41.7451 15.4254 41.0764 13.6563C40.5943 12.3808 40.7584 10.6413 40.959 9.70183C41.2566 8.30734 42.0019 7.31878 43.1655 7.41246C44.3606 7.50872 44.9417 8.77312 44.7891 11.0911ZM56.4661 11.1072C56.3978 12.1592 56.0666 13.2159 55.7052 13.813C54.9592 15.0458 53.3996 15.4311 52.7533 13.6565C52.3114 12.4439 52.4173 10.8746 52.6359 9.8859C52.9196 8.60282 53.6073 7.41259 54.8424 7.41259C56.0432 7.41246 56.6353 8.49701 56.4661 11.1072ZM56.7708 18.2842C56.7546 20.2032 56.3879 21.8858 55.6011 22.3745C54.4853 23.0674 52.9855 22.5477 53.2961 21.1473C53.5709 19.9081 54.8704 18.6426 56.7741 17.0964C56.7741 17.0964 56.7779 17.449 56.7708 18.2842ZM76.928 11.1184C76.8631 12.2733 76.5526 13.1761 76.1671 13.8129C75.421 15.0456 73.8725 15.4284 73.2153 13.6563C72.8571 12.6904 72.8404 11.0771 73.0979 9.7291C73.3601 8.35602 74.0922 7.31878 75.3044 7.41246C76.5001 7.50477 77.0597 8.77312 76.928 11.1184Z" fill="white"/>
</svg>
