<svg width="92" height="23" viewBox="0 0 92 23" fill="none" xmlns="http://www.w3.org/2000/svg">
<path d="M4.73515 0.0799367C2.85207 0.77509 0.781928 2.7365 0.128116 5.20038C-0.699911 8.3212 2.74584 9.64095 3.02846 9.2089C3.36109 8.7003 2.41104 8.52835 2.21545 6.90906C1.96272 4.81759 3.06609 2.48063 4.45486 1.45523C4.71301 1.26473 4.70062 1.52988 4.70062 2.02033C4.70062 2.89753 4.64564 10.7707 4.64564 12.4141C4.64564 14.6375 4.54142 15.3396 4.3542 16.0332C4.1645 16.7363 3.85974 17.2114 4.09063 17.3945C4.34878 17.5992 5.45075 17.1123 6.08877 16.3276C6.85377 15.3865 7.12152 14.2563 7.16968 13.029C7.22775 11.5494 7.22527 9.20167 7.22775 7.86254C7.23007 6.63435 7.25113 3.03795 7.20328 0.875937C7.19167 0.345634 5.52276 -0.210734 4.73515 0.0799367ZM91.587 11.7605C91.3138 11.7605 91.1893 12.0086 91.0861 12.4263C90.7283 13.8787 90.3524 14.2065 89.8676 14.2065C89.3259 14.2065 88.839 13.4874 88.714 12.0479C88.6157 10.9161 88.6315 8.83212 88.7572 6.75936C88.7829 6.33345 88.6496 5.91204 87.3533 5.49705C86.7955 5.31842 85.9846 5.05573 85.5809 5.9145C84.4404 8.34071 83.9939 10.2671 83.8889 11.0493C83.8835 11.0898 83.8273 11.098 83.8172 11.0034C83.7503 10.3768 83.6007 9.23783 83.5822 6.84519C83.5786 6.37835 83.4663 5.98096 82.8816 5.65563C82.5022 5.44438 81.35 5.07115 80.9352 5.51534C80.5759 5.87861 80.1595 6.85625 79.727 8.01511C79.3754 8.95685 79.1306 9.59401 79.1306 9.59401C79.1306 9.59401 79.1351 7.05262 79.1394 6.08863C79.1413 5.72495 78.8582 5.60363 78.7729 5.5818C78.3888 5.48354 77.6317 5.31938 77.3106 5.31938C76.914 5.31938 76.8169 5.51466 76.8169 5.79919C76.8169 5.83644 76.7543 9.14517 76.7543 11.4588C76.7543 11.5592 76.7545 11.669 76.7549 11.7855C76.5357 12.8488 75.8245 14.2924 75.0512 14.2924C74.2769 14.2924 73.9117 13.6889 73.9117 10.9307C73.9117 9.32176 73.9666 8.62197 73.9933 7.45833C74.0091 6.78801 74.0393 6.27313 74.0375 6.15645C74.0317 5.79823 73.3289 5.61769 73.0018 5.55082C72.6732 5.48368 72.3876 5.45748 72.1646 5.46867C71.849 5.48436 71.6259 5.66682 71.6259 5.91778C71.6259 6.05233 71.6276 6.30807 71.6276 6.30807C71.2211 5.74515 70.5671 5.35336 70.1323 5.23982C68.9606 4.93332 67.738 5.20502 66.8158 6.34205C66.0829 7.24558 65.6411 8.26907 65.4672 9.73934C65.34 10.8141 65.3815 11.9042 65.6075 12.826C65.3344 13.8662 64.8276 14.2924 64.2726 14.2924C63.4668 14.2924 62.8827 13.1335 62.9506 11.1291C62.9953 9.81071 63.2946 8.88562 63.6219 7.54717C63.7614 6.97647 63.648 6.67789 63.3637 6.39158C63.1029 6.12889 62.5475 5.99488 61.7485 6.15986C61.1796 6.27736 60.366 6.404 59.6219 6.50116C59.6219 6.50116 59.6668 6.34327 59.7036 6.06489C59.8972 4.60498 58.097 4.72343 57.5226 5.18973C57.1798 5.46812 56.9464 5.79646 56.8578 6.38681C56.7174 7.3235 57.5843 7.76551 57.5843 7.76551C57.2998 8.91318 56.6025 10.4121 55.8827 11.4959C55.4971 12.0766 55.2019 12.5069 54.8213 12.9643C54.8199 12.7943 54.8188 12.6242 54.8182 12.4542C54.8093 10.0416 54.8459 8.14284 54.8618 7.45847C54.8776 6.78815 54.9081 6.28705 54.9063 6.17037C54.9021 5.90836 54.7285 5.80929 54.3674 5.68415C54.0481 5.57334 53.6705 5.49664 53.2789 5.4699C52.7847 5.43605 52.4868 5.66695 52.4947 5.94016C52.4962 5.99174 52.4962 6.30848 52.4962 6.30848C52.0897 5.74556 51.4358 5.35377 51.0009 5.24023C49.8293 4.93373 48.6067 5.20543 47.6845 6.34246C46.9517 7.24599 46.4718 8.51389 46.3358 9.72843C46.2091 10.8604 46.2325 11.8223 46.4052 12.6327C46.2189 13.4441 45.6832 14.2926 45.0776 14.2926C44.3033 14.2926 43.8627 13.6892 43.8627 10.931C43.8627 9.32203 43.9175 8.62238 43.9443 7.4586C43.9601 6.78829 43.9903 6.2734 43.9885 6.15673C43.9827 5.79851 43.2798 5.61796 42.9528 5.55109C42.6105 5.48122 42.3151 5.45571 42.0882 5.47044C41.7887 5.49009 41.5784 5.72618 41.5784 5.90236V6.30848C41.1719 5.74556 40.5179 5.35377 40.0831 5.24023C38.9114 4.93373 37.6956 5.2098 36.7667 6.34246C36.1608 7.081 35.6704 7.89979 35.418 9.71232C35.3451 10.2361 35.3128 10.7267 35.317 11.1851C35.0754 12.4869 34.0086 13.9874 33.1357 13.9874C32.625 13.9874 32.1386 13.1145 32.1386 11.2541C32.1386 8.7759 32.3128 5.2476 32.342 4.90753C32.342 4.90753 33.4448 4.89101 33.6583 4.88883C34.2085 4.88351 34.7067 4.89497 35.4392 4.86195C35.8067 4.84543 36.1607 3.6833 35.7814 3.53946C35.6097 3.47437 34.3947 3.41733 33.9132 3.40832C33.5083 3.40027 32.3808 3.32671 32.3808 3.32671C32.3808 3.32671 32.4819 0.9847 32.5056 0.737289C32.5255 0.530954 32.2228 0.42492 32.0492 0.360372C31.6269 0.203165 31.2494 0.127699 30.8017 0.0463663C30.1832 -0.0660809 29.9024 0.0439099 29.8477 0.50407C29.7652 1.20209 29.7225 3.24715 29.7225 3.24715C29.2684 3.24715 27.7181 3.16896 27.2641 3.16896C26.8421 3.16896 26.387 4.76765 26.9702 4.7873C27.6412 4.81023 28.8105 4.83001 29.5857 4.85062C29.5857 4.85062 29.5512 8.43719 29.5512 9.54447C29.5512 9.66224 29.5517 9.77564 29.5526 9.88577C29.1259 11.8454 27.623 12.904 27.623 12.904C27.9458 11.6075 27.2865 10.634 26.0992 9.8099C25.6616 9.50612 24.7981 8.93133 23.8318 8.30127C23.8318 8.30127 24.3915 7.81519 24.8878 6.83714C25.2395 6.14444 25.2546 5.35172 24.3913 5.17691C22.9652 4.88801 21.7891 5.81092 21.4383 6.79634C21.1665 7.55986 21.3115 8.12619 21.8439 8.71476C21.8828 8.75775 21.9249 8.80156 21.9684 8.84577C21.6464 9.39259 21.2042 10.1288 20.8296 10.6998C19.7897 12.285 19.0044 13.5388 18.4107 13.5388C17.9362 13.5388 17.9427 12.2659 17.9427 11.074C17.9427 10.0465 18.0288 8.50174 18.0976 6.90237C18.1203 6.37343 17.8201 6.07212 17.3169 5.79919C17.0112 5.63338 16.3588 5.30737 15.9811 5.30737C15.4156 5.30737 13.7838 5.37519 12.2421 9.30525C12.0477 9.80062 11.666 10.7032 11.666 10.7032L11.6988 5.97714C11.6988 5.86633 11.6318 5.75907 11.4785 5.68579C11.2186 5.5616 10.5247 5.30737 9.90773 5.30737C9.6138 5.30737 9.467 5.42787 9.467 5.66804L9.41311 13.0621C9.41311 13.624 9.42968 14.2794 9.49286 14.566C9.55558 14.8531 9.65732 15.0865 9.78337 15.2254C9.90912 15.364 10.0547 15.4698 10.2947 15.5135C10.518 15.554 11.7409 15.6924 11.8046 15.2805C11.8808 14.7869 11.8836 14.2531 12.5258 12.262C13.5255 9.16223 14.829 7.64979 15.4419 7.11266C15.5489 7.01878 15.6712 7.01318 15.6654 7.16684C15.6393 7.8463 15.5474 9.54461 15.4853 10.9873C15.3192 14.8482 16.1163 15.5638 17.2553 15.5638C18.1267 15.5638 19.355 14.8007 20.6718 12.8694C21.4925 11.6658 22.2896 10.4857 22.8624 9.63508C23.2615 9.96069 23.7092 10.311 24.1569 10.6853C25.1969 11.5551 25.5383 12.3817 25.3118 13.1658C25.1385 13.7653 24.4859 14.3831 23.3245 13.7827C22.986 13.6076 22.8413 13.4722 22.5011 13.2746C22.3182 13.1686 22.0392 13.1368 21.8718 13.248C21.4368 13.5369 21.1881 13.9045 21.0461 14.3595C20.9079 14.8022 21.4111 15.0362 21.9326 15.2409C22.3817 15.4171 23.3469 15.5768 23.9625 15.5949C26.3608 15.6656 28.2823 14.5744 29.6196 11.7597C29.8592 14.1906 30.878 15.5661 32.6485 15.5661C33.8321 15.5661 35.0188 14.218 35.5377 12.8917C35.6867 13.4324 35.9072 13.9023 36.192 14.3C37.5561 16.2046 40.2025 15.7947 41.5318 14.1775C41.9426 13.6777 42.0054 13.498 42.0054 13.498C42.1992 15.0252 43.5948 15.5589 44.3939 15.5589C45.2888 15.5589 46.2129 15.1861 46.8605 13.9013C46.9347 14.0384 47.0179 14.1715 47.1096 14.3001C48.4738 16.2048 51.1202 15.7948 52.4495 14.1776C52.512 14.1016 52.5665 14.0328 52.6139 13.971L52.6529 14.9743L51.4293 15.9634C49.3778 17.6202 47.8193 18.8769 47.7048 20.3404C47.559 22.2064 49.2753 22.8999 50.5757 22.9908C51.9542 23.0873 53.1369 22.4156 53.8629 21.4755C54.5016 20.6482 54.9196 18.8675 54.8891 17.1086C54.8769 16.4043 54.8567 15.5088 54.8408 14.5489C55.5609 13.812 56.3723 12.8805 57.1192 11.7904C57.9335 10.6022 58.8059 9.0068 59.2525 7.7651C59.2525 7.7651 60.0106 7.77084 60.8196 7.72416C61.0783 7.70929 61.1525 7.75569 61.1048 7.92299C61.047 8.12483 60.0827 11.4026 60.9628 13.586C61.5652 15.0807 62.9231 15.5616 63.7283 15.5616C64.6707 15.5616 65.5722 14.9344 66.0553 14.0031C66.1135 14.1069 66.1745 14.2073 66.2408 14.3001C67.605 16.2048 70.2421 15.7925 71.5807 14.1776C71.8826 13.8132 72.0542 13.4981 72.0542 13.4981C72.3415 15.0787 73.7363 15.5669 74.5352 15.5669C75.3674 15.5669 76.1572 15.2663 76.7978 13.9302C76.8246 14.5186 76.8667 14.9995 76.9333 15.1511C76.9739 15.2439 77.2104 15.3603 77.3824 15.4166C78.1437 15.6652 78.9202 15.5477 79.2074 15.4965C79.4064 15.4611 79.5616 15.3204 79.5828 14.9571C79.6384 14.0032 79.6043 12.4005 79.9325 11.2093C80.4833 9.2104 80.9971 8.43487 81.2409 8.05113C81.3773 7.83607 81.5312 7.80058 81.5368 8.02821C81.5481 8.48878 81.5741 9.84128 81.7877 11.6585C81.9444 12.9949 82.1536 13.7849 82.3145 14.0349C82.7737 14.7497 83.3407 14.7835 83.8025 14.7835C84.0961 14.7835 84.7106 14.7121 84.6556 14.2572C84.6288 14.0354 84.6758 12.6649 85.2189 10.6956C85.5735 9.40951 86.1647 8.24764 86.378 7.82269C86.4566 7.66603 86.4932 7.78953 86.492 7.81355C86.447 8.69921 86.3462 11.5961 86.7557 13.1804C87.3107 15.3269 88.9161 15.5669 89.4756 15.5669C90.67 15.5669 91.6469 14.7663 91.9759 12.6596C92.056 12.152 91.9386 11.7605 91.587 11.7605ZM41.5539 10.4581C41.4855 11.573 41.2386 12.5051 40.8425 13.1821C40.1258 14.4074 38.7078 14.7959 38.0826 13.0254C37.6318 11.7488 37.7853 10.0079 37.9728 9.06766C38.2511 7.67203 38.948 6.68266 40.0359 6.77641C41.1533 6.87276 41.6966 8.1382 41.5539 10.4581ZM52.4716 10.4742C52.4078 11.527 52.0981 12.5846 51.7602 13.1822C51.0627 14.416 49.6046 14.8017 49.0003 13.0256C48.5871 11.812 48.6861 10.2414 48.8905 9.25189C49.1558 7.96775 49.7988 6.77655 50.9535 6.77655C52.0763 6.77641 52.6299 7.86186 52.4716 10.4742ZM52.7565 17.657C52.7414 19.5777 52.3985 21.2616 51.6629 21.7507C50.6197 22.4442 49.2174 21.924 49.5078 20.5225C49.7647 19.2823 50.9797 18.0158 52.7596 16.4683C52.7596 16.4683 52.7632 16.8212 52.7565 17.657ZM71.6031 10.4854C71.5424 11.6413 71.252 12.5448 70.8917 13.1821C70.194 14.4159 68.7463 14.7989 68.1318 13.0254C67.7968 12.0587 67.7812 10.444 68.022 9.09496C68.2672 7.72075 68.9516 6.68266 70.085 6.77641C71.203 6.8688 71.7262 8.1382 71.6031 10.4854Z" fill="white"/>
</svg>
