<svg width="92" height="19" viewBox="0 0 92 19" fill="none" xmlns="http://www.w3.org/2000/svg">
<path d="M76.0371 6.54188C74.7633 6.1836 73.477 6.1836 72.2095 6.54188C70.3083 7.0793 69.0345 8.34654 68.6267 10.3701C68.4008 11.4715 68.3568 12.6459 68.4196 13.7804C68.5514 16.368 70.0698 18.2124 72.4166 18.7897H72.517C72.6048 18.7897 72.699 18.856 72.7868 18.856H72.8809C72.9939 18.856 73.1319 18.9224 73.2762 18.9224C73.7343 18.9887 74.3241 19.0086 74.8135 18.9224H74.8888C77.3172 18.7897 79.1556 17.1708 79.6953 14.6894C79.9902 13.3293 79.9902 11.9625 79.6953 10.5957C79.2435 8.4527 78.0136 7.0793 75.9995 6.50871L76.0371 6.54188ZM76.194 14.0259C76.194 14.1055 76.194 14.1851 76.1312 14.2648C75.8865 15.4059 75.1022 16.023 74.0543 15.9765C72.9311 15.9102 72.1593 15.2268 72.0464 14.0392C71.9711 13.17 71.9585 12.2876 72.0464 11.4184C72.153 10.045 72.9625 9.29531 74.1798 9.32185C75.1775 9.32185 75.8928 9.93888 76.1438 10.9606C76.3822 11.9758 76.2128 13.7937 76.2065 14.0259H76.194ZM81.0757 0.484338V18.7432H84.7402V13.1567L88.1159 18.7499H92L88.3356 12.6724L92 6.6215H88.1159L84.7402 12.2013V0.0132686L81.0757 0.484338ZM42.0658 13.0705C42.0658 12.2212 42.0657 11.372 41.9465 10.536C41.6328 8.25365 40.3214 6.80727 38.1942 6.42909C37.3848 6.28313 36.5252 6.30303 35.6969 6.36274C33.438 6.58833 31.725 8.07451 31.3736 10.3171C31.1603 11.6772 31.1352 13.1169 31.3046 14.4771C31.5619 16.5272 32.5093 17.8343 34.1408 18.4646C34.8875 18.7034 38.5394 19.7119 41.752 18.0001L41.6202 17.5025C41.4696 16.8324 41.294 16.1756 41.1245 15.5121V15.4457C41.1245 15.4457 41.0555 15.4457 40.9363 15.5121C40.7983 15.5784 40.6539 15.5983 40.5159 15.6448H40.4406C39.9512 15.7908 39.2547 15.9699 38.5205 16.0694C37.9056 16.1358 37.2781 16.1358 36.6507 16.0694C35.6279 15.8903 34.8498 15.313 34.8875 13.9463H42.072V13.8136L42.0658 13.0705ZM38.7715 11.4052L47.3177 10.3436C47.3177 9.51426 34.9314 9.79955 35.6279 9.32849C36.3683 8.83088 37.1903 8.81097 37.9558 9.2555C38.7339 9.70667 38.7903 10.5227 38.7715 11.4052ZM30.7901 17.8608C30.6332 17.2504 30.4512 16.64 30.2755 16.0561L30.1124 15.4059C30.1124 15.4059 25.8268 17.5821 25.1616 13.4487C25.0989 12.7653 25.0989 12.062 25.2244 11.3919C25.3938 10.1247 26.1217 9.44128 27.2888 9.32849C27.6841 9.26214 28.0919 9.32848 28.481 9.39483C29.0143 9.48772 29.5289 9.66022 30.1124 9.81282C30.3132 9.16262 30.5203 8.51241 30.7148 7.8622C30.7775 7.76268 30.7775 7.66979 30.7901 7.59681L30.8842 7.20536C30.8842 7.13901 30.8026 7.0992 30.721 7.04612C30.6207 6.95987 30.4575 6.88689 30.194 6.78737C30.0873 6.72102 29.9869 6.70775 29.8802 6.67458C29.7861 6.60823 29.7234 6.60823 29.7234 6.60823C28.6002 6.26986 27.4456 6.24332 26.2723 6.36938C23.8 6.64804 22.1184 8.1873 21.6541 10.7351C21.4094 12.0753 21.4219 13.4354 21.7168 14.7756C22.1372 16.786 23.2918 18.093 25.1679 18.6702C26.3915 19.0484 27.6464 19.0683 28.8951 18.8626C29.4222 18.7764 30.1751 18.4911 30.7148 18.2854L30.9218 18.2058L30.8214 17.8608H30.7901ZM16.9355 8.04134C16.8727 7.97499 16.8476 7.94182 16.8163 7.90201L16.7284 7.80912C15.9064 6.92006 15.5927 6.70112 14.9464 6.50207C12.4616 5.72581 10.0396 7.10584 9.27404 9.74648C8.80344 11.372 8.79716 13.044 9.07325 14.6894C9.66935 18.2523 12.173 19.4465 14.846 18.856C15.668 18.6769 16.2766 18.1328 16.8414 17.3831C16.8414 17.3831 16.9041 17.3167 16.9543 17.1907V18.7565H20.374V6.4888H16.9543V8.04134H16.9355ZM16.6343 14.205C16.5213 15.3396 15.6554 16.0163 14.6264 15.9765C13.5785 15.9102 12.882 15.3396 12.6561 14.2714C12.3863 12.7587 12.7189 10.954 12.7314 10.808C13.0075 9.79292 13.704 9.28868 14.7331 9.31522C15.7433 9.31522 16.5151 9.97206 16.6343 11.0734C16.7347 12.1085 16.7347 13.1767 16.6343 14.205ZM8.57755 6.48217H5.96099V4.64434C6.14923 2.90603 8.86619 3.23777 8.86619 3.23777V0.265391C8.77206 0.265391 3.46992 -1.0881 2.41577 3.17805C2.25263 3.70884 2.2589 6.15707 2.26518 6.46227H0V9.73321H2.40322V18.6238H5.90452V9.73321H8.58382L8.88501 6.46227H8.58382L8.57755 6.48217ZM63.5504 6.54188C62.2766 6.1836 60.9903 6.1836 59.7228 6.54188C57.8216 7.0793 56.5478 8.34654 56.1337 10.3701C55.9078 11.4715 55.8639 12.6459 55.9266 13.7804C56.0647 16.368 57.5769 18.2124 59.9299 18.7897H60.0303C60.1181 18.7897 60.2123 18.856 60.3001 18.856H60.3942C60.5072 18.856 60.6452 18.9224 60.7895 18.9224C61.2476 18.9887 61.8374 19.0086 62.3268 18.9224H62.4021C64.8304 18.7897 66.6689 17.1708 67.2086 14.6894C67.5035 13.3293 67.5035 11.9625 67.2086 10.5957C66.7505 8.45933 65.5269 7.0793 63.5128 6.50871L63.5504 6.54188ZM63.701 14.0259C63.701 14.1055 63.701 14.1851 63.6382 14.2648C63.3935 15.4059 62.6092 16.023 61.5613 15.9765C60.4381 15.9102 59.6663 15.2268 59.5534 14.0392C59.475 13.1676 59.475 12.29 59.5534 11.4184C59.6601 10.045 60.4695 9.29531 61.6868 9.32185C62.6845 9.32185 63.3998 9.93888 63.6508 10.9606C63.8955 11.9758 63.7261 13.7937 63.7136 14.0259H63.701ZM50.568 6.3163C49.1876 6.15707 47.9891 6.6016 46.9789 7.88874V0L43.3144 0.471068V18.7233H46.9789V17.6419C47.4746 18.0134 47.9514 18.4646 48.5162 18.6769C50.6496 19.4863 53.4606 18.8295 54.4458 15.8107C55.0795 13.8733 55.0607 11.8895 54.5838 9.93225C54.063 7.75605 52.6889 6.55515 50.568 6.3163ZM51.1202 14.2249C50.957 15.4258 50.0535 16.0561 48.9805 15.9699C48.7107 15.9699 48.466 15.8903 48.2526 15.7974C47.3867 15.2732 47.1232 14.3908 47.0479 13.8335C46.9851 12.9776 46.9224 11.1862 47.3177 10.3436C47.6502 9.6934 48.2401 9.34176 49.0119 9.31522C50.1162 9.24887 50.9508 9.85263 51.1139 11.0403C51.2519 12.0819 51.2582 13.1833 51.1139 14.2249H51.1202Z" fill="white"/>
</svg>
