<svg width="125" height="23" viewBox="0 0 125 23" fill="none" xmlns="http://www.w3.org/2000/svg">
<path d="M103.311 7.91912C101.581 7.48542 99.8329 7.48542 98.1108 7.91912C95.5276 8.56968 93.7969 10.1037 93.2427 12.5533C92.9358 13.8866 92.8761 15.3082 92.9614 16.6816C93.1404 19.8139 95.2036 22.0466 98.3921 22.7454H98.5285C98.6479 22.7454 98.7757 22.8257 98.8951 22.8257H99.023C99.1764 22.8257 99.364 22.906 99.5601 22.906C100.182 22.9863 100.984 23.0104 101.649 22.906H101.751C105.05 22.7454 107.548 20.7857 108.282 17.7819C108.682 16.1354 108.682 14.4809 108.282 12.8264C107.668 10.2322 105.997 8.56968 103.26 7.87896L103.311 7.91912ZM103.524 16.9787C103.524 17.0751 103.524 17.1715 103.439 17.2679C103.107 18.6493 102.041 19.3962 100.617 19.34C99.0912 19.2597 98.0426 18.4324 97.8891 16.9948C97.7868 15.9427 97.7697 14.8745 97.8891 13.8223C98.034 12.1598 99.1338 11.2522 100.788 11.2843C102.143 11.2843 103.115 12.0313 103.456 13.2681C103.78 14.497 103.55 16.6976 103.541 16.9787H103.524ZM110.157 0.586304V22.6892H115.136V15.9266L119.723 22.6972H125L120.021 15.3403L125 8.0155H119.723L115.136 14.77V0.016062L110.157 0.586304ZM57.1546 15.8222C57.1546 14.7941 57.1545 13.7661 56.9926 12.7541C56.5663 9.99126 54.7845 8.24038 51.8944 7.78258C50.7946 7.60589 49.6266 7.62999 48.5012 7.70227C45.4321 7.97534 43.1046 9.77441 42.6272 12.4891C42.3373 14.1356 42.3032 15.8784 42.5334 17.5249C42.883 20.0066 44.1703 21.5888 46.3869 22.3518C47.4014 22.641 52.3633 23.8618 56.7283 21.7896L56.5492 21.1873C56.3446 20.3761 56.1059 19.581 55.8757 18.7778V18.6975C55.8757 18.6975 55.782 18.6975 55.62 18.7778C55.4324 18.8581 55.2363 18.8822 55.0488 18.9384H54.9465C54.2815 19.1151 53.3352 19.332 52.3377 19.4524C51.5022 19.5328 50.6496 19.5328 49.7971 19.4524C48.4074 19.2356 47.3503 18.5368 47.4014 16.8823H57.1631V16.7217L57.1546 15.8222ZM52.6787 13.8063L64.2903 12.5212C64.2903 11.5173 47.4611 11.8626 48.4074 11.2924C49.4134 10.69 50.5303 10.6659 51.5704 11.204C52.6275 11.7502 52.7043 12.7381 52.6787 13.8063ZM41.8343 21.621C41.6212 20.8821 41.374 20.1432 41.1352 19.4364L40.9136 18.6493C40.9136 18.6493 35.0907 21.2836 34.187 16.28C34.1018 15.4527 34.1018 14.6014 34.2723 13.7902C34.5025 12.2562 35.4914 11.4289 37.0771 11.2924C37.6142 11.2121 38.1684 11.2924 38.697 11.3727C39.4216 11.4851 40.1207 11.694 40.9136 11.8787C41.1864 11.0916 41.4677 10.3045 41.732 9.5174C41.8173 9.39693 41.8173 9.28449 41.8343 9.19614L41.9622 8.72228C41.9622 8.64196 41.8514 8.59377 41.7406 8.52952C41.6041 8.42511 41.3825 8.33676 41.0244 8.21629C40.8795 8.13597 40.7431 8.11991 40.5981 8.07975C40.4703 7.99944 40.385 7.99944 40.385 7.99944C38.859 7.58983 37.2903 7.5577 35.696 7.7103C32.337 8.04763 30.0522 9.91095 29.4213 12.9951C29.0888 14.6174 29.1059 16.2639 29.5065 17.8863C30.0778 20.3199 31.6464 21.9021 34.1955 22.6008C35.858 23.0586 37.5631 23.0827 39.2597 22.8337C39.9758 22.7293 40.9988 22.384 41.732 22.135L42.0134 22.0386L41.877 21.621H41.8343ZM23.0102 9.73425C22.9249 9.65394 22.8908 9.61378 22.8482 9.56559L22.7288 9.45315C21.612 8.37692 21.1857 8.11188 20.3076 7.87093C16.9315 6.93124 13.6407 8.6018 12.6006 11.7984C11.9612 13.7661 11.9527 15.7901 12.3278 17.7819C13.1377 22.0948 16.5394 23.5405 20.1712 22.8257C21.288 22.6089 22.115 21.9503 22.8823 21.0427C22.8823 21.0427 22.9675 20.9624 23.0357 20.8098V22.7052H27.6821V7.85487H23.0357V9.73425H23.0102ZM22.6009 17.1956C22.4475 18.569 21.271 19.3882 19.8728 19.34C18.4491 19.2597 17.5027 18.569 17.1958 17.2759C16.8292 15.4447 17.2811 13.2601 17.2981 13.0834C17.6732 11.8546 18.6196 11.2442 20.0177 11.2763C21.3903 11.2763 22.439 12.0714 22.6009 13.4047C22.7373 14.6576 22.7373 15.9507 22.6009 17.1956ZM11.6543 7.84684H8.09917V5.62209C8.35493 3.51782 12.0464 3.9194 12.0464 3.9194V0.321262C11.9186 0.321262 4.71457 -1.31718 3.28229 3.84712C3.06063 4.48964 3.06916 7.45329 3.07768 7.82274H0V11.7823H3.26524V22.5446H8.02244V11.7823H11.6628L12.072 7.82274H11.6628L11.6543 7.84684ZM86.3457 7.91912C84.615 7.48542 82.8673 7.48542 81.1451 7.91912C78.5619 8.56968 76.8313 10.1037 76.2686 12.5533C75.9617 13.8866 75.902 15.3082 75.9872 16.6816C76.1748 19.8139 78.2294 22.0466 81.4265 22.7454H81.5629C81.6822 22.7454 81.8101 22.8257 81.9295 22.8257H82.0574C82.2108 22.8257 82.3984 22.906 82.5945 22.906C83.2168 22.9863 84.0182 23.0104 84.6832 22.906H84.7855C88.0848 22.7454 90.5828 20.7857 91.316 17.7819C91.7167 16.1354 91.7167 14.4809 91.316 12.8264C90.6936 10.2402 89.0312 8.56968 86.2945 7.87896L86.3457 7.91912ZM86.5503 16.9787C86.5503 17.0751 86.5503 17.1715 86.465 17.2679C86.1325 18.6493 85.0668 19.3962 83.6431 19.34C82.117 19.2597 81.0684 18.4324 80.9149 16.9948C80.8084 15.9397 80.8084 14.8774 80.9149 13.8223C81.0599 12.1598 82.1597 11.2522 83.8136 11.2843C85.1691 11.2843 86.141 12.0313 86.4821 13.2681C86.8146 14.497 86.5844 16.6976 86.5673 16.9787H86.5503ZM68.7065 7.64605C66.8309 7.45329 65.2026 7.9914 63.83 9.54953V0L58.8511 0.57024V22.6651H63.83V21.3559C64.5035 21.8057 65.1514 22.3518 65.9187 22.6088C68.8174 23.5887 72.6367 22.7936 73.9752 19.1392C74.8363 16.794 74.8107 14.3926 74.1628 12.0232C73.4552 9.3889 71.5881 7.93518 68.7065 7.64605ZM69.4568 17.2197C69.2351 18.6734 68.0074 19.4364 66.5496 19.332C66.183 19.332 65.8505 19.2356 65.5606 19.1232C64.3841 18.4887 64.0261 17.4205 63.9237 16.7458C63.8385 15.7097 63.7532 13.5412 64.2903 12.5212C64.7422 11.7341 65.5436 11.3084 66.5922 11.2763C68.0927 11.196 69.2266 11.9269 69.4482 13.3645C69.6358 14.6255 69.6443 15.9587 69.4482 17.2197H69.4568Z" fill="white"/>
</svg>
